<svg width="180" height="180" viewBox="0 0 180 180" fill="none" xmlns="http://www.w3.org/2000/svg">
  <defs>
    <linearGradient id="bg" x1="18" y1="18" x2="162" y2="162" gradientUnits="userSpaceOnUse">
      <stop stop-color="#0078D4"/>
      <stop offset="1" stop-color="#005A9E"/>
    </linearGradient>
  </defs>
  <rect x="6" y="6" width="168" height="168" rx="36" fill="url(#bg)"/>
  <path d="M53 102c0-10.5 8.5-19 19-19 2 0 4 .3 5.8.9C81.2 74.4 90.3 68 101 68c13.3 0 24.3 9.9 25.9 22.7 8.1 1.5 14.1 8.6 14.1 17 0 9.5-7.7 17.3-17.3 17.3H70.3C60.2 125 53 117.8 53 107.7V102Z" fill="white" fill-opacity="0.95"/>
  <path d="M69 109h40" stroke="#005A9E" stroke-width="8" stroke-linecap="round"/>
  <path d="M69 95h52" stroke="#005A9E" stroke-width="8" stroke-linecap="round"/>
</svg>
